<svg class="block__icon--logoidhdefault icon__logo" viewBox="0 0 1900 320" xmlns="http://www.w3.org/2000/svg"
     xmlns:xlink="http://www.w3.org/1999/xlink">
  <g id="Group-3-Copy-16" transform="translate(549.000000, 24.000000)">
    <path
      d="M164.684569,266.836754 C231.534874,266.836754 297.642397,228.327465 297.642397,137.238187 C297.642397,42.4460924 242.676591,7.63962012 168.398475,7.63962012 L87.0639372,7.63962012 L87.0639372,266.836754 L164.684569,266.836754 Z M164.398423,225.0094 L139.058619,225.0094 L139.058619,48.129391 L166.234641,48.129391 C220.586684,48.129391 242.98854,75.4581088 242.98854,134.906478 C242.98854,194.354846 218.383223,225.0094 164.398423,225.0094 Z M346.913548,75.2573886 C362.883343,75.2573886 376.253404,61.9272503 376.253404,46.0051407 C376.253404,30.083031 362.883343,16.7528927 346.913548,16.7528927 C330.943753,16.7528927 317.573692,30.083031 317.573692,46.0051407 C317.573692,61.9272503 330.943753,75.2573886 346.913548,75.2573886 Z M372.539498,266.836754 L372.539498,91.1794983 L321.287598,105.219943 L321.287598,266.836754 L372.539498,266.836754 Z M985.670475,75.2573886 C1001.64027,75.2573886 1015.01033,61.9272503 1015.01033,46.0051407 C1015.01033,30.083031 1001.64027,16.7528927 985.670475,16.7528927 C969.70068,16.7528927 956.330619,30.083031 956.330619,46.0051407 C956.330619,61.9272503 969.70068,75.2573886 985.670475,75.2573886 Z M863.514233,90.0523585 C904.03071,90.0523585 930.226961,110.451229 937.309159,157.57438 C938.592075,166.11058 939.247781,175.523713 939.247781,185.851378 L828.586547,186.208968 C834.0988,226.237855 864.885232,244.789676 920.945842,241.864433 C912.08138,261.03454 892.319147,270.619594 861.659145,270.619594 C815.669141,270.619594 778.656726,233.638597 778.656726,180.495184 C778.656726,127.351772 811.146184,90.0523585 863.514233,90.0523585 Z M1011.29643,91.1794983 L1011.29643,266.836754 L960.044525,266.836754 L960.044525,105.219943 L1011.29643,91.1794983 Z M863.680432,118.757919 C845.876856,118.757919 833.560237,133.705352 829.711686,158.574019 L896.547269,158.57531 C896.547269,141.713265 887.237674,118.757919 863.680432,118.757919 Z M448.922161,266.836754 L448.922161,120.748695 C494.429693,125.857705 517.183459,153.076071 517.183459,202.403794 C517.183459,251.731516 517.183459,273.20917 517.183459,266.836754 L567.66179,266.836754 L567.66179,171.569677 C567.66179,105.219943 526.094653,88.2003869 484.795092,88.3093584 C457.262051,88.382006 428.220441,99.0426678 397.670261,120.291344 L397.670261,266.836754 L448.922161,266.836754 Z M1081.7652,266.836754 L1081.7652,120.748695 C1107.16654,129.568386 1123.65006,137.688912 1131.21576,145.110273 L1158.45068,95.5038249 C1145.93248,90.2402092 1131.76964,88.2720715 1117.63813,88.3088394 C1090.10509,88.381833 1061.06348,99.0426678 1030.5133,120.291344 L1030.5133,266.836754 L1081.7652,266.836754 Z M641.035542,266.836754 L641.035542,120.748695 C686.543073,125.857705 709.296839,153.076071 709.296839,202.403794 C709.296839,251.731516 709.296839,273.20917 709.296839,266.836754 L759.77517,266.836754 L759.77517,171.569677 C759.77517,105.219943 699.35198,88.2003869 676.908472,88.3093584 C661.946134,88.382006 649.712986,92.4476645 640.209029,100.506334 L641.035542,0 L589.783641,14.3041603 L589.783641,266.836754 L641.035542,266.836754 Z M1240.32261,270.909852 C1293.88104,270.909852 1333.36573,233.257359 1333.36573,179.131901 C1333.36573,125.006442 1293.88104,87.0177663 1240.32261,87.0177663 C1186.76418,87.0177663 1147.67044,125.006442 1147.67044,179.131901 C1147.67044,233.257359 1186.76418,270.909852 1240.32261,270.909852 Z M1240.2954,237.572485 C1210.90089,237.572485 1197.09438,212.487765 1197.09438,178.049421 C1197.09438,143.611078 1210.90089,118.101193 1240.2954,118.101193 C1269.6899,118.101193 1283.94178,144.036242 1283.94178,178.049421 C1283.94178,209.086447 1269.6899,237.572485 1240.2954,237.572485 Z"
      id="iDinheiro-Copy-50" fill-rule="nonzero"></path>
    <path
      d="M29.339856,75.2573886 C45.309651,75.2573886 58.679712,61.9272503 58.679712,46.0051407 C58.679712,30.083031 45.309651,16.7528927 29.339856,16.7528927 C13.370061,16.7528927 0,30.083031 0,46.0051407 C0,61.9272503 13.370061,75.2573886 29.339856,75.2573886 Z"
      id="Path-Copy-5"></path>
    <polygon id="Path-Copy-8"
             points="54.9658062 266.836754 54.9658062 91.1794983 3.71390582 105.219943 3.71390582 266.836754"></polygon>
  </g>
  <path
    d="M61.3430464,123.301481 L61.3430464,161.915298 C87.9062431,161.915298 122.686093,123.301481 122.686093,61.9546025 C122.686093,28.5632636 94.7322994,0.607723996 61.3430464,0.607723996 C27.9537933,0.607723996 -2.15965841e-11,28.5632636 -2.15965841e-11,61.9546025 C-2.15965841e-11,95.3459414 27.9537933,123.301481 61.3430464,123.301481 Z"
    id="Path-Copy-4" fill="#373737"></path>
  <path
    d="M414.469778,161.871894 C414.469778,250.724722 342.440329,322.75417 253.587501,322.75417 L151.908242,322.75417 L151.908242,322.75417 L151.908242,0.989617021 L253.587501,0.989617021 C342.440329,0.989617021 414.469778,73.0190658 414.469778,161.871894 Z"
    id="Path" fill="#0071FF"></path>
</svg>
